<svg width="222" height="206" viewBox="0 0 222 206" fill="none" xmlns="http://www.w3.org/2000/svg">
<ellipse cx="112.913" cy="195.874" rx="74.6531" ry="9.69521" fill="#352A23"/>
<path d="M31.8746 124.808C32.4452 125.234 33.8801 125.578 33.8801 125.578C35.7305 126.348 38.6806 128.744 41.833 133.572C42.1986 134.406 42.9327 135.065 43.8856 135.292L59.8965 139.101C60.3813 139.245 60.8938 139.32 61.4256 139.306L173.383 136.278C176.078 136.206 178.203 133.963 178.128 131.267L176.048 54.3706C175.976 51.6753 173.732 49.5507 171.037 49.6255L59.0794 52.6531C58.65 52.6642 58.24 52.7362 57.8467 52.8526C57.0988 52.8387 56.3425 53.0991 55.7498 53.6504L41.146 67.1738C40.8995 67.4009 40.3233 68.2707 40.2291 68.448C40.2291 68.448 40.2236 68.4563 40.2208 68.4619C40.1017 68.689 40.002 68.9272 39.9272 69.1765C36.3981 77.6197 32.0962 81.7609 30.8912 82.8108C30.786 82.8911 30.5616 83.0905 30.5616 83.0905C29.7583 83.844 29.268 84.9243 29.2985 86.1099L30.2624 121.711C30.2957 122.985 30.9245 124.101 31.8746 124.81" fill="#6A4A36"/>
<path d="M31.8746 124.808C32.4452 125.234 33.8801 125.578 33.8801 125.578C35.7305 126.348 38.6806 128.744 41.833 133.572C42.1986 134.406 42.9327 135.065 43.8856 135.292L59.8965 139.101C60.3813 139.245 60.8938 139.32 61.4256 139.306L173.383 136.278C176.078 136.206 178.203 133.963 178.128 131.267L176.048 54.3706C175.976 51.6753 173.732 49.5507 171.037 49.6255L59.0794 52.6531C58.65 52.6642 58.24 52.7362 57.8467 52.8526C57.0988 52.8387 56.3425 53.0991 55.7498 53.6504L41.146 67.1738C40.8995 67.4009 40.3233 68.2707 40.2291 68.448C40.2291 68.448 40.2236 68.4563 40.2208 68.4619C40.1017 68.689 40.002 68.9272 39.9272 69.1765C36.3981 77.6197 32.0962 81.7609 30.8912 82.8108C30.786 82.8911 30.5616 83.0905 30.5616 83.0905C29.7583 83.844 29.268 84.9243 29.2985 86.1099L30.2624 121.711C30.2957 122.985 30.9245 124.101 31.8746 124.81" stroke="#352A23" stroke-width="0.831018" stroke-miterlimit="10" stroke-linecap="round"/>
<path d="M147.768 58.1457L68.5097 60.2903C65.815 60.3633 63.6897 62.6068 63.7626 65.3014L65.4069 126.065C65.4798 128.76 67.7233 130.885 70.4179 130.812L149.676 128.668C152.371 128.595 154.496 126.351 154.423 123.657L152.779 62.8927C152.706 60.1981 150.463 58.0728 147.768 58.1457Z" fill="#FFF4E0" stroke="#352A23" stroke-width="0.831018" stroke-miterlimit="10" stroke-linecap="round"/>
<path d="M129.447 100.329C129.447 100.329 121.389 119.495 109.037 119.542C96.6856 119.589 89.2258 97.7115 89.2258 97.7115V97.5148C89.2923 97.1381 104.896 110.224 129.447 100.329Z" fill="#403127"/>
<path d="M98.7688 114.124C98.7688 114.124 103.904 111.871 108.015 114.445C108.015 114.445 114.176 112.207 114.979 117.902C114.979 117.902 107.007 123.439 98.7688 114.124Z" fill="#EE6363"/>
<path d="M129.83 100.553C126.051 108.797 118.425 120.542 108.146 119.922C98.42 119.041 91.8411 105.958 88.8106 97.7861C88.8078 97.5202 88.8134 97.0022 88.8106 96.7473L89.4644 97.1767C98.708 102.963 110.315 105.071 120.985 102.717C125.813 101.675 130.364 99.6836 134.655 97.3097C135.727 96.7058 136.885 95.9856 137.91 95.3097C137.979 95.2654 138.071 95.2875 138.112 95.354C138.154 95.4205 138.137 95.5064 138.073 95.5534C137.342 96.0991 136.486 96.703 135.724 97.221C125.212 104.495 111.306 106.359 99.1291 102.473C95.5696 101.351 92.1458 99.8941 88.9907 97.8581L89.6444 97.5174V97.7141C92.7857 105.85 100.387 121.639 111.833 118.78C117.921 117.16 122.206 111.919 125.517 106.828C126.849 104.717 128.062 102.504 129.065 100.232C129.276 99.7279 130.048 100.033 129.83 100.556V100.553Z" fill="#352A23"/>
<path d="M26.93 131.8C26.93 131.8 25.7943 126.157 28.1738 117.39C31.1987 106.243 36.8607 100.803 43.7831 98.4346C45.1792 95.4014 44.7886 92.7117 42.7471 90.335C35.0795 92.0662 25.0131 97.4596 20.5838 113.784C17.1018 126.62 18.7639 134.886 18.7639 134.886C20.7749 133.238 23.5228 132.232 26.93 131.803V131.8Z" fill="#352A23" stroke="#352A23" stroke-width="0.831018" stroke-miterlimit="10" stroke-linecap="round"/>
<path d="M177.09 90.8695C179.86 89.3238 184.577 85.2685 188.214 78.6813C190.86 73.8863 192.156 69.1634 192.754 65.1772C195.081 66.7534 197.812 67.4071 201.059 66.8919C200.438 70.3434 198.84 76.4874 194.751 83.961C189.588 93.3986 183.242 98.0052 177.281 100.08L177.09 90.8695Z" fill="#352A23" stroke="#352A23" stroke-width="0.831018" stroke-miterlimit="10" stroke-linecap="round"/>
<path d="M83.6443 138.705C91.4503 142.556 114.891 160.417 122.334 171.018C123.071 166.362 124.647 163.229 127.503 160.013C125.397 156.783 122.699 153.486 119.287 150.171C113.434 144.484 107.999 140.653 103.791 138.16L83.6443 138.705Z" fill="#352A23" stroke="#352A23" stroke-width="0.831018" stroke-miterlimit="10" stroke-linecap="round"/>
<path d="M171.209 59.8881L157.63 60.2555C156.547 60.2848 155.693 61.1863 155.722 62.2691L156.275 82.6963C156.305 83.7791 157.206 84.6331 158.289 84.6038L171.868 84.2363C172.951 84.207 173.805 83.3055 173.776 82.2228L173.223 61.7955C173.194 60.7128 172.292 59.8588 171.209 59.8881Z" fill="#FFF4E0" stroke="#352A23" stroke-width="0.831018" stroke-miterlimit="10" stroke-linecap="round"/>
<path d="M165.754 107.434C168.996 107.434 171.624 104.806 171.624 101.564C171.624 98.3223 168.996 95.6943 165.754 95.6943C162.513 95.6943 159.885 98.3223 159.885 101.564C159.885 104.806 162.513 107.434 165.754 107.434Z" fill="#FFF4E0" stroke="#352A23" stroke-width="0.831018" stroke-miterlimit="10" stroke-linecap="round"/>
<path d="M219.859 39.2943C218.84 38.6378 217.325 38.9729 215.726 40.0366C216.929 37.3026 217.009 34.8677 215.712 33.8788C214.178 32.7098 211.2 33.9342 208.496 36.6461C208.92 34.5713 208.685 32.9591 207.688 32.3193C205.726 31.0589 201.569 34.0312 198.4 38.9619C196.411 42.056 195.286 45.1862 195.209 47.3995C195.209 47.4272 195.173 47.4355 195.161 47.4105C194.668 46.5214 193.962 45.5186 193.829 44.8122C192.735 39.056 189.993 34.7431 187.702 35.178C185.411 35.6129 184.441 40.6322 185.535 46.3884C185.577 46.6128 185.624 46.8371 185.671 47.056H185.663L186.979 52.5324C187.247 53.9063 187.887 55.4216 188.887 56.8592C189.854 58.2498 191.006 59.3523 192.161 60.0836C191.519 60.6099 191.106 61.2553 191.017 61.9866C190.735 64.2664 193.66 66.5073 197.555 66.9921C201.449 67.4769 204.834 66.0198 205.117 63.7373C205.175 63.2719 205.098 62.8093 204.906 62.3633C206.538 61.9035 208.48 60.8176 210.305 59.2304C211.433 58.2498 212.377 57.1972 213.098 56.1695L217.413 50.7291C217.79 50.2526 218.153 49.7457 218.499 49.2055C221.206 44.9951 221.809 40.5602 219.848 39.2998L219.859 39.2943Z" fill="#FFF4E0" stroke="#352A23" stroke-width="0.831018" stroke-miterlimit="10" stroke-linecap="round"/>
<path d="M195.339 47.0941C198.383 48.1855 201.873 50.8891 201.061 54.5095C201.034 54.6425 200.832 54.612 200.848 54.4763C201.206 51.0691 197.89 48.8919 195.064 47.8808C194.549 47.698 194.815 46.9196 195.339 47.0969V47.0941Z" fill="#352A23"/>
<path d="M208.499 36.646C208.499 36.646 206.377 42.139 204.186 45.6071L208.499 36.646Z" fill="white"/>
<path d="M208.884 36.795C207.582 39.8698 206.15 42.8947 204.283 45.6703C204.203 45.7922 204.003 45.6703 204.081 45.5429C205.3 43.3822 206.283 41.0997 207.214 38.8033C207.518 38.036 207.82 37.2632 208.108 36.4958C208.186 36.2798 208.427 36.1662 208.646 36.2465C208.865 36.3269 208.976 36.5762 208.884 36.795Z" fill="#352A23"/>
<path d="M215.818 39.8252C215.818 39.8252 213.145 45.0745 210.607 48.296L215.818 39.8252Z" fill="white"/>
<path d="M216.189 40.0135C214.577 42.9387 212.843 45.8002 210.704 48.3708C210.61 48.4844 210.427 48.3431 210.516 48.224C211.948 46.1991 213.161 44.0301 214.322 41.8418C214.704 41.1077 215.086 40.3709 215.449 39.634C215.704 39.1437 216.441 39.5177 216.189 40.0135Z" fill="#352A23"/>
<path d="M200.358 47.1188C205.045 46.0274 210.374 48.6535 210.355 53.9193C210.355 53.9664 210.286 53.9775 210.272 53.9332C208.757 49.1188 205.1 47.5565 200.372 47.249C200.3 47.249 200.28 47.1355 200.355 47.1216L200.358 47.1188Z" fill="#352A23"/>
<path d="M192.341 60.1909C193.388 60.7782 194.283 61.1189 195.275 61.4181L192.341 60.1909Z" fill="white"/>
<path d="M192.546 59.8279C193.405 60.4069 194.336 60.875 195.325 61.2517C195.521 61.3265 195.43 61.6284 195.225 61.5814C194.178 61.357 193.128 61.0218 192.139 60.5509C191.929 60.4539 191.834 60.2019 191.934 59.9941C192.039 59.7642 192.336 59.6839 192.544 59.8279H192.546Z" fill="#352A23"/>
<path d="M204.787 62.3848C203.618 62.6618 202.665 62.7393 201.629 62.756L204.787 62.3848Z" fill="white"/>
<path d="M204.884 62.7889C203.804 62.9662 202.701 62.9994 201.635 62.9274C201.538 62.9218 201.466 62.8387 201.471 62.7446C201.477 62.6587 201.546 62.5922 201.629 62.5839C202.685 62.4925 203.71 62.3014 204.693 61.98C205.264 61.8166 205.469 62.6781 204.884 62.7889Z" fill="#352A23"/>
<path d="M68.0461 136.085C62.7276 136.085 58.1237 138.495 55.8606 142.007C55.8578 142.01 55.8551 142.013 55.8495 142.018C54.8966 143.284 51.5809 145.711 49.6529 145.946L2.43171 149.764C1.57576 149.833 0.93588 150.583 1.00513 151.439C1.07438 152.295 1.82507 152.935 2.68102 152.866L49.6474 149.068C51.6917 149.104 55.6473 152.182 57.6501 153.977C57.6584 153.985 57.6667 153.988 57.675 153.996C60.1819 156.309 63.8965 157.775 68.0433 157.775C75.5973 157.775 81.7191 152.919 81.7191 146.93C81.7191 140.941 75.5973 136.085 68.0433 136.085H68.0461Z" fill="#C1855F" stroke="#352A23" stroke-width="0.831018" stroke-miterlimit="10" stroke-linecap="round"/>
<path d="M100.927 67.3907C100.938 67.6262 99.647 67.8838 98.0709 68.1968C97.2869 68.3492 96.5778 68.4877 96.057 68.5874C95.8022 68.6345 95.5667 68.6733 95.4005 68.665C95.2343 68.6567 95.1401 68.6151 95.129 68.5569C95.118 68.4988 95.19 68.4323 95.3119 68.3464C95.4365 68.2605 95.6083 68.147 95.8603 68.0195C96.3479 67.7647 97.093 67.5154 97.9047 67.363C99.5445 67.0389 100.916 67.158 100.924 67.3907H100.927Z" fill="#352A23"/>
<path d="M123.998 66.2242C124.007 65.9915 125.378 65.8724 127.018 66.1965C127.829 66.3489 128.575 66.5982 129.062 66.853C129.314 66.9805 129.486 67.094 129.611 67.1799C129.732 67.2658 129.804 67.3323 129.793 67.3904C129.782 67.4486 129.688 67.4901 129.522 67.4985C129.356 67.5068 129.123 67.468 128.865 67.4209C128.347 67.3212 127.636 67.1827 126.852 67.0303C125.275 66.7173 123.985 66.4625 123.996 66.2242H123.998Z" fill="#352A23"/>
<path d="M167.926 149.168C165.699 145.637 159.347 142.421 153.45 142.069C145.838 141.615 139.683 145.301 136.918 151.883L135.292 156.18C131.068 155.437 126.929 159.581 124.148 165.235C120.395 172.869 122.461 178.822 128.007 179.431C128.871 183.404 132.3 187.163 137.201 188.938C142.436 190.836 147.649 189.708 150.979 186.991C156.419 182.55 159.032 179.526 162.702 173.67C169.522 162.792 170.151 152.703 167.923 149.168H167.926Z" fill="#FFF4E0" stroke="#352A23" stroke-width="0.831018" stroke-miterlimit="10" stroke-linecap="round"/>
<path d="M166.86 147.816C161.788 144.63 151.633 151.719 143.732 162.586C135.663 173.683 132.417 186.937 139.414 189.574C139.414 189.574 150.918 194.727 164.256 171.018C164.256 171.018 173.657 152.082 166.862 147.816H166.86Z" fill="#C1855F" stroke="#352A23" stroke-width="0.831018" stroke-miterlimit="10" stroke-linecap="round"/>
<path d="M128.01 179.431C128.53 173.606 130.813 166.002 135.295 156.179L128.01 179.431Z" fill="#FFF4E0"/>
<path d="M128.01 179.431C128.53 173.606 130.813 166.002 135.295 156.179" stroke="#352A23" stroke-width="0.831018" stroke-miterlimit="10" stroke-linecap="round"/>
<path d="M102.578 182.919C101.772 177.06 97.1566 172.858 92.273 173.531C91.4447 173.645 90.6636 173.894 89.9378 174.254C89.9378 174.254 86.5888 171.584 86.1844 168.002C88.9434 167.199 91.0237 163.637 91.0237 159.365C91.0237 154.501 88.3284 150.559 85.0016 150.559C83.5861 150.559 82.2842 151.277 81.2537 152.473C80.6249 152.398 79.9795 152.357 79.3174 152.357C74.6776 152.357 72.251 153.656 69.7552 156.404C67.2594 159.152 66.7635 162.052 66.2704 164.564C65.7774 167.077 66.0876 174.977 68.9823 181.434C70.8854 185.678 73.2925 189.232 75.6859 191.611H75.6803C78.4088 195.102 84.6027 198.154 88.5279 197.877C89.3838 197.886 90.2841 197.8 91.2038 197.606C92.6026 197.312 93.863 196.808 94.9101 196.171C96.5472 195.248 98.079 194.043 99.525 192.614C99.561 192.581 99.5943 192.545 99.6303 192.512C99.6413 192.501 99.6524 192.489 99.6635 192.478L99.658 192.484C101.896 190.265 103.098 186.711 102.575 182.919H102.578Z" fill="#FFF4E0" stroke="#352A23" stroke-width="0.831018" stroke-miterlimit="10"/>
<path d="M89.9517 174.249C89.9517 174.249 87.708 175.368 86.1013 177.686L89.9517 174.249Z" fill="#FFF4E0"/>
<path d="M90.1346 174.622C88.6222 175.343 87.2538 176.453 86.215 177.775C86.1652 177.838 86.0737 177.847 86.01 177.797C85.9519 177.75 85.938 177.667 85.9796 177.603C86.2178 177.234 86.4671 176.866 86.7496 176.525C87.6056 175.478 88.5973 174.584 89.7635 173.877C89.9629 173.761 90.2177 173.827 90.3341 174.024C90.4643 174.24 90.3673 174.525 90.1346 174.62V174.622Z" fill="#352A23"/>
<path d="M86.1847 168.002C86.1847 168.002 83.3869 168.562 81.7249 166.368L86.1847 168.002Z" fill="#FFF4E0"/>
<path d="M86.2648 168.409C84.5086 168.586 82.6416 167.916 81.661 166.414C81.636 166.381 81.6444 166.331 81.6776 166.306C81.7108 166.281 81.7579 166.29 81.7829 166.32C82.323 166.921 83.0155 167.373 83.7995 167.564C84.5391 167.76 85.3922 167.766 86.118 167.589C86.6914 167.467 86.8465 168.326 86.2621 168.409H86.2648Z" fill="#352A23"/>
<path d="M81.24 152.412C81.5281 152.448 78.8688 154.689 79.5336 158.766L81.24 152.412Z" fill="#FFF4E0"/>
<path d="M81.2924 151.999C81.514 152.018 81.708 152.257 81.6747 152.47C81.6581 152.628 81.5888 152.716 81.5196 152.816C80.8742 153.617 80.3008 154.489 79.9767 155.475C79.6221 156.509 79.5196 157.636 79.6526 158.744C79.672 158.891 79.4448 158.935 79.4143 158.783C78.913 156.531 79.5168 154.237 80.8437 152.362C80.8686 152.329 80.8936 152.254 80.8603 152.342C80.8215 152.489 80.8825 152.669 81.0321 152.763C81.0985 152.802 81.1345 152.813 81.19 152.822C80.6498 152.747 80.7495 151.938 81.2924 151.996V151.999Z" fill="#352A23"/>
<path d="M107.669 83.1904C107.669 86.9632 107.01 89.5782 105.558 93.1515C101.666 92.9465 98.2426 93.1377 94.7385 94.7083C93.01 92.8662 91.2011 87.9881 91.3562 83.1932C91.5335 77.6503 95.0072 73.1489 99.5141 73.1489C104.021 73.1489 107.672 77.6447 107.672 83.1932L107.669 83.1904Z" fill="white" stroke="#352A23" stroke-width="0.831018" stroke-miterlimit="10" stroke-linecap="round"/>
<path d="M94.9684 95.0547C94.3119 95.376 93.6748 95.7445 93.1291 96.2403C93.0764 96.2902 92.9933 96.2874 92.9435 96.232C92.9019 96.1877 92.8992 96.1212 92.9296 96.0741C93.3562 95.4231 93.9185 94.8663 94.5086 94.3594C94.9933 93.9716 95.5141 94.7611 94.9656 95.0547H94.9684Z" fill="#352A23"/>
<path d="M105.805 92.7644C106.528 93.0525 107.24 93.3987 107.852 93.8807C107.907 93.9251 107.918 94.0054 107.874 94.0636C107.835 94.1107 107.772 94.1245 107.719 94.1023C107.043 93.8087 106.32 93.6647 105.597 93.5705C104.982 93.4652 105.218 92.5594 105.808 92.7672L105.805 92.7644Z" fill="#352A23"/>
<path d="M97.6137 73.7223C95.2065 74.7334 92.7993 75.7112 90.2509 76.3206C90.1484 76.3456 90.0791 76.2015 90.165 76.1406C91.755 74.9328 93.6248 74.1821 95.5029 73.5561C96.1289 73.3511 96.7661 73.1711 97.4115 73.0353C97.6054 72.9938 97.7965 73.1184 97.8381 73.3123C97.8768 73.4896 97.7744 73.6641 97.6109 73.7251L97.6137 73.7223Z" fill="#352A23"/>
<path d="M97.1013 75.2962C95.8326 75.2962 94.0708 75.6979 93.3506 76.7145C93.3506 76.7145 87.913 85.2657 94.9129 94.5648C97.7162 93.3875 100.669 92.936 103.738 93.0855C104.58 90.5343 104.971 88.2906 104.971 85.3377C104.971 79.792 101.448 75.2935 97.0985 75.2935L97.1013 75.2962ZM103.002 83.3571C102.484 84.1327 101.179 84.0053 100.783 83.9471C100.716 83.936 100.666 83.8806 100.666 83.8114V79.6618C100.666 79.6147 100.691 79.5677 100.733 79.5427C100.93 79.4236 101.134 79.3654 101.32 79.3377C101.683 79.2823 102.038 79.4845 102.198 79.8142C102.63 80.7117 103.467 82.659 103.002 83.3571Z" fill="#352A23"/>
<path d="M134.804 82.3066C134.414 86.0573 133.486 88.5919 131.674 91.9963C127.824 91.3896 124.4 91.2234 120.749 92.4229C119.22 90.4118 117.929 85.3731 118.577 80.6169C119.328 75.1211 123.251 71.0075 127.73 71.4729C132.209 71.9383 135.378 76.7887 134.802 82.3066H134.804Z" fill="white" stroke="#352A23" stroke-width="0.831018" stroke-miterlimit="10" stroke-linecap="round"/>
<path d="M121.4 92.6479C120.713 92.9 120.04 93.1992 119.447 93.6368C119.331 93.7282 119.173 93.562 119.27 93.4512C119.76 92.8474 120.378 92.3515 121.018 91.9083C121.209 91.7753 121.47 91.8252 121.6 92.0136C121.758 92.2324 121.652 92.5565 121.4 92.6451V92.6479Z" fill="#352A23"/>
<path d="M132.181 91.6725C132.871 92.0353 133.541 92.4536 134.101 92.9938C134.154 93.0437 134.154 93.124 134.104 93.1766C134.062 93.2209 133.996 93.2265 133.946 93.1988C133.306 92.8359 132.6 92.6171 131.89 92.4509C131.289 92.2819 131.616 91.4065 132.181 91.6725Z" fill="#352A23"/>
<path d="M130.519 71.9548C131.735 72.4811 132.865 73.1681 133.937 73.9409C135.015 74.7166 136.032 75.5836 136.807 76.6778C136.871 76.7609 136.763 76.88 136.674 76.8273C134.971 75.855 133.383 74.7415 131.752 73.6639C131.212 73.3066 130.677 72.9465 130.148 72.5698C129.987 72.4534 129.949 72.229 130.065 72.0684C130.17 71.9216 130.367 71.8772 130.522 71.9576L130.519 71.9548Z" fill="#352A23"/>
<path d="M124.137 73.5145C122.868 73.5145 121.356 73.8968 120.636 74.9161C120.636 74.9161 115.78 83.4258 120.661 92.5808C123.464 91.4035 127.489 91.5033 130.561 91.6528C131.403 89.1016 132.01 86.5116 132.01 83.556C132.01 78.0103 128.486 73.5117 124.137 73.5117V73.5145ZM130.037 81.5754C129.519 82.351 128.215 82.2236 127.818 82.1654C127.752 82.1543 127.702 82.0989 127.702 82.0297V77.8801C127.702 77.833 127.727 77.7859 127.769 77.761C127.965 77.6419 128.17 77.5837 128.356 77.556C128.719 77.5006 129.073 77.7028 129.234 78.0325C129.666 78.93 130.503 80.8773 130.037 81.5754Z" fill="#352A23"/>
<path d="M109.81 94.2512C111.195 92.2401 113.799 89.7969 116.442 90.8467C118.918 92.085 119.849 95.3869 117.686 97.3813C116.846 98.1265 115.755 98.5447 114.658 98.6999C113.813 98.8439 112.963 98.8162 112.118 98.7553C111.885 98.7442 111.871 98.3952 112.104 98.3675C114.217 98.1542 117.123 97.7082 117.76 95.3176C117.99 94.4395 117.702 93.5559 117.17 92.844C116.47 91.747 115.242 91.2816 113.965 91.747C112.683 92.1708 111.506 93.085 110.5 94.0046C110.345 94.1459 110.182 94.301 110.057 94.4395C109.938 94.5808 109.705 94.4035 109.81 94.2512Z" fill="#352A23"/>
<path d="M84.107 93.1159C86.4006 92.8278 88.6582 94.3873 89.4975 96.5036C90.7357 99.3623 89.2815 103.08 86.2926 104.11C85.5834 104.357 84.83 104.454 84.107 104.36C84.0294 104.348 83.974 104.279 83.9823 104.202C83.9907 104.135 84.0433 104.085 84.107 104.077C85.4726 103.905 86.6831 103.235 87.5142 102.257C90.2454 99.066 88.348 93.9774 84.107 93.4926C83.8882 93.4704 83.8882 93.1353 84.107 93.1131V93.1159Z" fill="#352A23"/>
<path d="M98.5 113.784C102.148 112.341 107.422 111.906 109.755 115.745C109.863 115.972 110.084 116.274 110.118 116.529C110.179 116.77 110.176 117.313 109.777 117.138C109.378 116.897 109.262 116.529 109.046 116.183C106.852 112.806 102.118 113.454 98.8075 114.551C98.3034 114.739 97.9987 113.994 98.5 113.778V113.784Z" fill="#352A23"/>
<path d="M115.229 117.902C115.229 117.902 114.253 112.697 107.874 114.345" stroke="#352A23" stroke-width="0.831018" stroke-miterlimit="10" stroke-linecap="round"/>
<path d="M55.2068 54.144L58.0516 138.368" stroke="#352A23" stroke-width="0.831018" stroke-miterlimit="10" stroke-linecap="round"/>
<path d="M131.276 1.3518C124.929 1.3518 119.486 4.73958 117.176 9.55948C116.506 4.73681 111.88 1 106.265 1C100.19 1 95.2675 5.37115 95.2675 10.7645C95.2675 12.878 95.7772 15.2852 97.0625 16.8835L90.1983 14.504C89.01 14.1024 87.7247 13.8808 86.3839 13.8808C80.3452 13.8808 75.4478 18.3378 75.4478 23.8364C75.4478 29.3349 80.3425 33.792 86.3839 33.792C86.9767 33.792 87.5612 33.7476 88.1291 33.6645L92.1346 53.1242C103.824 55.379 115.929 54.7253 128.176 52.0189L130.536 28.0912C130.782 28.1023 131.029 28.1078 131.278 28.1078C139.719 28.1078 146.563 22.1189 146.563 14.7284C146.563 7.3379 139.716 1.3518 131.276 1.3518Z" fill="#FFF4E0" stroke="#352A23" stroke-width="0.831018" stroke-miterlimit="10" stroke-linecap="round"/>
<path d="M89.8215 41.884C89.8215 41.884 108.63 47.4269 129.336 40.2524" stroke="#352A23" stroke-width="0.831018" stroke-miterlimit="10" stroke-linecap="round"/>
<path d="M107.051 44.3106C105.808 43.6236 104.91 42.4768 104.148 41.3161C103.428 40.2136 102.844 38.9117 102.373 37.6846C102.315 37.5378 102.533 37.4353 102.605 37.5821C102.605 37.5821 103.04 38.4824 103.04 38.4851C103.791 39.9256 104.7 41.3549 105.88 42.4713C106.323 42.8757 106.83 43.3023 107.375 43.546C107.91 43.7593 107.58 44.546 107.054 44.3133L107.051 44.3106Z" fill="#352A23"/>
<path d="M119.082 42.4878C121.187 41.1886 122.298 38.7177 122.799 36.3687C122.96 35.6457 123.062 34.6014 123.12 33.8535C123.132 33.7067 123.364 33.7122 123.359 33.8673L123.32 35.1526C123.159 37.3133 122.622 39.485 121.378 41.2939C120.855 42.0418 120.259 42.7177 119.475 43.2191C119.278 43.3382 119.024 43.2772 118.904 43.0806C118.774 42.87 118.86 42.5903 119.084 42.4878H119.082Z" fill="#352A23"/>
<path d="M117.586 9.4901C118.073 14.1383 115.951 18.8252 111.614 20.8363C111.483 20.8972 111.375 20.7061 111.508 20.6285C115.555 18.5316 117.417 14.0247 116.769 9.62306C116.666 9.06351 117.503 8.91947 117.589 9.48733L117.586 9.4901Z" fill="#352A23"/>
<path d="M169.12 97.2377L167.098 98.9357C167.048 98.98 166.973 98.9108 167.012 98.8581L168.505 96.6809C168.885 96.1795 169.585 96.8111 169.12 97.2404V97.2377Z" fill="#352A23"/>
<path d="M165.754 125.049C168.996 125.049 171.624 122.421 171.624 119.179C171.624 115.938 168.996 113.31 165.754 113.31C162.513 113.31 159.885 115.938 159.885 119.179C159.885 122.421 162.513 125.049 165.754 125.049Z" fill="#FFF4E0" stroke="#352A23" stroke-width="0.831018" stroke-miterlimit="10" stroke-linecap="round"/>
<path d="M161.995 123.307L164.018 121.609C164.067 121.565 164.142 121.634 164.104 121.686L162.61 123.864C162.231 124.365 161.53 123.734 161.995 123.304V123.307Z" fill="#352A23"/>
<path d="M41.8498 147.719C42.2431 146.811 42.4592 145.827 42.4592 144.797C42.4592 140.301 38.365 136.659 33.318 136.659C32.487 136.659 31.6836 136.758 30.9191 136.944C31.3817 135.988 31.487 135.046 31.1435 134.229C30.1656 131.9 25.9302 131.459 21.6837 133.246C17.44 135.03 14.7918 138.365 15.7697 140.695C16.1187 141.523 16.8804 142.11 17.9054 142.445C15.7475 144.764 13.8611 147.911 13.8611 152.046C13.8611 158.102 17.3597 163.007 21.6754 163.007C22.3236 163.007 22.9552 162.894 23.5563 162.686C24.5424 163.825 26.1186 164.564 27.9025 164.564C30.0244 164.564 31.8554 163.517 32.7418 161.996C33.6532 162.481 34.6587 162.75 35.7113 162.75C39.9024 162.75 43.3013 158.514 43.3013 153.29C43.3013 151.207 42.7611 149.284 41.8442 147.722L41.8498 147.719Z" fill="#FFF4E0" stroke="#352A23" stroke-width="0.831018" stroke-miterlimit="10" stroke-linecap="round"/>
<path d="M20.5784 150.307C20.5286 154.539 21.4482 158.949 23.9025 162.453C24.2321 162.902 23.5562 163.401 23.2266 162.941C21.4454 160.135 20.6338 156.838 20.4261 153.553C20.3624 152.467 20.354 151.381 20.4427 150.298C20.4482 150.215 20.584 150.218 20.5784 150.309V150.307Z" fill="#352A23"/>
<path d="M27.534 149.528C28.3955 153.88 29.8526 158.489 33.0409 161.703C33.4398 162.082 32.8775 162.689 32.4703 162.307C30.0742 159.703 28.8553 156.307 28.0382 152.93C27.7778 151.811 27.5617 150.683 27.426 149.542C27.4177 149.476 27.5257 149.454 27.5368 149.528H27.534Z" fill="#352A23"/>
<path d="M17.9084 142.442C17.9084 142.442 18.637 141.78 20.637 140.755L17.9084 142.442Z" fill="white"/>
<path d="M17.6284 142.134C18.5785 141.525 19.5951 141.145 20.6366 140.755C19.7835 141.356 18.8887 141.993 18.1879 142.752C17.7613 143.212 17.1297 142.514 17.6311 142.134H17.6284Z" fill="#352A23"/>
<path d="M31.4759 136.822C31.4759 136.822 30.5202 137.057 28.5535 138.143L31.4759 136.822Z" fill="white"/>
<path d="M31.5756 137.224C30.5535 137.384 29.5258 137.769 28.5535 138.14C29.4593 137.495 30.3402 136.866 31.3762 136.417C31.9717 136.212 32.1989 137.129 31.5756 137.224Z" fill="#352A23"/>
<path d="M36.7086 145.398C36.7086 145.398 35.9662 149.395 38.5479 152.434L36.7086 145.398Z" fill="white"/>
<path d="M36.811 145.418C37.0492 147.861 37.5589 150.154 38.6032 152.387C38.6393 152.456 38.5506 152.531 38.4897 152.484C36.8415 151.351 36.1102 149.229 36.1905 147.287C36.1573 147.093 36.5118 144.803 36.8138 145.418H36.811Z" fill="#352A23"/>
<path d="M37.3095 150.057L49.4894 149.071C51.5337 149.107 55.4894 152.184 57.4921 153.979C57.5004 153.988 57.5088 153.99 57.5171 153.999C60.024 156.312 63.7386 157.777 67.8854 157.777C75.4393 157.777 81.5612 152.921 81.5612 146.932C81.5612 140.943 75.4393 136.087 67.8854 136.087C62.5669 136.087 57.963 138.497 55.6999 142.01C55.6971 142.013 55.6944 142.015 55.6888 142.021C54.7359 143.287 51.4202 145.713 49.4922 145.949L36.7112 146.982C36.4508 148.101 36.7222 149.123 37.3067 150.057H37.3095Z" fill="#C1855F" stroke="#352A23" stroke-width="0.831018" stroke-miterlimit="10" stroke-linecap="round"/>
<path d="M56.8771 149.778C58.7608 150.079 60.6112 150.617 62.3286 151.459C62.8992 151.739 63.481 152.132 63.9546 152.406C66.1125 153.495 68.7828 153.243 71.0931 152.714C71.1928 152.681 71.2593 152.841 71.154 152.88C69.3923 153.6 67.4034 153.966 65.4976 153.669C64.1956 153.542 63.0876 152.744 61.9796 152.138C60.3286 151.296 58.5613 150.7 56.7968 150.113C56.5974 150.055 56.6583 149.739 56.8716 149.772L56.8771 149.778Z" fill="#352A23"/>
<path d="M67.6278 138.977C71.2233 139.19 75.5197 140.492 77.6526 143.606C78.7052 145.101 79.082 147.074 78.0127 148.667C77.6775 149.146 77.2703 149.57 76.7634 149.869C76.6526 149.935 76.5418 149.775 76.6388 149.694C77.3618 148.96 77.8825 147.977 77.8964 146.932C77.9296 145.935 77.4726 144.919 76.9019 144.115C75.6831 142.351 73.769 141.282 71.7856 140.498C70.4394 139.977 69.0239 139.575 67.5945 139.298C67.4034 139.273 67.4172 138.966 67.625 138.977H67.6278Z" fill="#352A23"/>
<path d="M128.085 137.503C124.849 157.135 88.1015 163.315 88.1015 163.315C83.4949 163.331 80.6833 157.567 84.7303 154.589C84.7303 154.589 115.004 145.309 113.73 137.891L128.087 137.503H128.085Z" fill="#352A23" stroke="#352A23" stroke-width="0.831018" stroke-miterlimit="10" stroke-linecap="round"/>
<path d="M169.514 63.4895L159.518 63.76C158.934 63.7758 158.473 64.2622 158.489 64.8463C158.504 65.4305 158.991 65.8913 159.575 65.8755L169.571 65.605C170.155 65.5892 170.616 65.1028 170.6 64.5186C170.585 63.9344 170.098 63.4737 169.514 63.4895Z" fill="#352A23"/>
<path d="M169.65 68.5315L159.654 68.8019C159.07 68.8178 158.609 69.3042 158.625 69.8883C158.641 70.4725 159.127 70.9333 159.711 70.9175L169.708 70.647C170.292 70.6312 170.753 70.1448 170.737 69.5606C170.721 68.9764 170.235 68.5156 169.65 68.5315Z" fill="#352A23"/>
<path d="M169.784 73.5759L159.788 73.8464C159.204 73.8622 158.743 74.3486 158.759 74.9328C158.774 75.517 159.261 75.9777 159.845 75.9619L169.841 75.6914C170.425 75.6756 170.886 75.1892 170.87 74.605C170.855 74.0208 170.368 73.5601 169.784 73.5759Z" fill="#352A23"/>
<path d="M169.92 78.6174L159.924 78.8879C159.34 78.9037 158.879 79.3901 158.895 79.9743C158.911 80.5585 159.397 81.0192 159.981 81.0034L169.977 80.7329C170.562 80.7171 171.022 80.2307 171.007 79.6465C170.991 79.0624 170.504 78.6016 169.92 78.6174Z" fill="#352A23"/>
</svg>
