<svg width="34" height="36" viewBox="0 0 34 36" fill="none" xmlns="http://www.w3.org/2000/svg">
<g clip-path="url(#clip0_285_1172)">
<path d="M33.12 16.0875V18.9675C33.12 19.7625 32.8762 20.4413 32.3887 21.0038C31.9012 21.5663 31.2675 21.8475 30.4875 21.8475H14.6475L21.24 28.4625C21.81 29.0025 22.095 29.6775 22.095 30.4875C22.095 31.2975 21.81 31.9725 21.24 32.5125L19.5525 34.2225C18.9975 34.7775 18.3225 35.055 17.5275 35.055C16.7475 35.055 16.065 34.7775 15.48 34.2225L0.8325 19.5525C0.2775 18.9975 0 18.3225 0 17.5275C0 16.7475 0.2775 16.065 0.8325 15.48L15.48 0.855C16.05 0.285 16.7325 0 17.5275 0C18.3075 0 18.9825 0.285 19.5525 0.855L21.24 2.52C21.81 3.09 22.095 3.7725 22.095 4.5675C22.095 5.3625 21.81 6.045 21.24 6.615L14.6475 13.2075H30.4875C31.2675 13.2075 31.9012 13.4888 32.3887 14.0513C32.8762 14.6138 33.12 15.2925 33.12 16.0875Z" fill="#604D42"/>
</g>
<defs>
<clipPath id="clip0_285_1172">
<rect width="33.12" height="36" fill="white"/>
</clipPath>
</defs>
</svg>
